<svg width="24" height="25" viewBox="0 0 24 25" fill="none" xmlns="http://www.w3.org/2000/svg">
<path d="M13.41 12.9872L19.71 6.69725C19.8983 6.50894 20.0041 6.25355 20.0041 5.98725C20.0041 5.72094 19.8983 5.46555 19.71 5.27725C19.5217 5.08894 19.2663 4.98315 19 4.98315C18.7337 4.98315 18.4783 5.08894 18.29 5.27725L12 11.5772L5.71 5.27725C5.5217 5.08894 5.2663 4.98315 5 4.98315C4.7337 4.98315 4.4783 5.08894 4.29 5.27725C4.1017 5.46555 3.99591 5.72094 3.99591 5.98725C3.99591 6.25355 4.1017 6.50894 4.29 6.69725L10.59 12.9872L4.29 19.2772C4.19627 19.3702 4.12188 19.4808 4.07111 19.6027C4.02034 19.7245 3.9942 19.8552 3.9942 19.9872C3.9942 20.1193 4.02034 20.25 4.07111 20.3718C4.12188 20.4937 4.19627 20.6043 4.29 20.6972C4.38296 20.791 4.49356 20.8654 4.61542 20.9161C4.73728 20.9669 4.86799 20.993 5 20.993C5.13201 20.993 5.26272 20.9669 5.38458 20.9161C5.50644 20.8654 5.61704 20.791 5.71 20.6972L12 14.3972L18.29 20.6972C18.383 20.791 18.4936 20.8654 18.6154 20.9161C18.7373 20.9669 18.868 20.993 19 20.993C19.132 20.993 19.2627 20.9669 19.3846 20.9161C19.5064 20.8654 19.617 20.791 19.71 20.6972C19.8037 20.6043 19.8781 20.4937 19.9289 20.3718C19.9797 20.25 20.0058 20.1193 20.0058 19.9872C20.0058 19.8552 19.9797 19.7245 19.9289 19.6027C19.8781 19.4808 19.8037 19.3702 19.71 19.2772L13.41 12.9872Z" fill="#212121"/>
</svg>
